<svg
  xmlns="http://www.w3.org/2000/svg"
  width="36"
  height="36"
  viewBox="0 0 36 36"
  fill="none"
  role="img"
  aria-labelledby="brand-mark-title"
  style="overflow: visible"
>
  <title id="brand-mark-title">Dijital Stok</title>
  <defs>
    <linearGradient id="brand-mark-gradient" x1="0" y1="0" x2="36" y2="36" gradientUnits="userSpaceOnUse">
      <stop stop-color="#1A73E8" />
      <stop offset="0.5" stop-color="#3B82F6" />
      <stop offset="1" stop-color="#6366F1" />
    </linearGradient>
    <clipPath id="brand-mark-clip">
      <rect width="36" height="36" rx="12" />
    </clipPath>
    <filter id="brand-mark-shadow" x="-12" y="-8" width="60" height="68" color-interpolation-filters="sRGB" filterUnits="userSpaceOnUse">
      <feDropShadow dx="0" dy="4" stdDeviation="3" flood-color="#1A73E8" flood-opacity="0.25" />
      <feDropShadow dx="0" dy="10" stdDeviation="7.5" flood-color="#1A73E8" flood-opacity="0.16" />
    </filter>
    <filter id="brand-mark-dot-shadow" x="24" y="3" width="10" height="11" color-interpolation-filters="sRGB" filterUnits="userSpaceOnUse">
      <feDropShadow dx="0" dy="1" stdDeviation="1" flood-color="#000000" flood-opacity="0.05" />
    </filter>
  </defs>

  <g filter="url(#brand-mark-shadow)">
    <rect width="36" height="36" rx="12" fill="url(#brand-mark-gradient)" />
    <rect x="0.5" y="0.5" width="35" height="35" rx="11.5" stroke="#1A73E8" stroke-opacity="0.1" />
  </g>

  <g clip-path="url(#brand-mark-clip)">
    <g
      transform="translate(8.5 8.5) scale(0.7916667)"
      stroke="#FFFFFF"
      stroke-width="2.5"
      stroke-linecap="round"
      stroke-linejoin="round"
    >
      <path d="M15 21v-5a1 1 0 0 0-1-1h-4a1 1 0 0 0-1 1v5" />
      <path d="M17.774 10.31a1.12 1.12 0 0 0-1.549 0 2.5 2.5 0 0 1-3.451 0 1.12 1.12 0 0 0-1.548 0 2.5 2.5 0 0 1-3.452 0 1.12 1.12 0 0 0-1.549 0 2.5 2.5 0 0 1-3.77-3.248l2.889-4.184A2 2 0 0 1 7 2h10a2 2 0 0 1 1.653.873l2.895 4.192a2.5 2.5 0 0 1-3.774 3.244" />
      <path d="M4 10.95V19a2 2 0 0 0 2 2h12a2 2 0 0 0 2-2v-8.05" />
    </g>

    <circle cx="29" cy="7" r="3" fill="#FFFFFF" fill-opacity="0.9" filter="url(#brand-mark-dot-shadow)" />
    <circle cx="2" cy="34" r="10" fill="#FFFFFF" fill-opacity="0.15" />
  </g>
</svg>
